<?xml version="1.0" standalone="no"?><!DOCTYPE svg PUBLIC "-//W3C//DTD SVG 1.1//EN" "http://www.w3.org/Graphics/SVG/1.1/DTD/svg11.dtd"><svg xmlns="http://www.w3.org/2000/svg" version="1.1" width="924.42" height="1539.776" xmlns:xlink="http://www.w3.org/1999/xlink" xlink="http://www.w3.org/1999/xlink" style="position:relative;overflow:hidden;" viewBox="-12 23.77 924.42 1539.776"><defs><filter id="2cc299ce-98f0-4c4f-8ffc-f08e161c1859" x="-0.5" y="-0.5" width="2" height="2"><feFlood flood-color="#000" flood-opacity="0.3" result="flood"/><feComposite in="flood" in2="SourceAlpha" operator="in" result="mask"/><feGaussianBlur in="mask" stdDeviation="2"/><feOffset dx="1.25" dy="1.25" result="oEffect0"/><feMerge><feMergeNode in="oEffect0"/><feMergeNode in="SourceGraphic"/></feMerge></filter></defs><g><g width="0" height="1514.776" transform="scale(1,1) translate(434.257,36.27)"><g fill="#545454" stroke="#545454" stroke-opacity="1" transform="scale(1,1) translate(0,0)"><path fill="none" stroke-width="1" stroke-dasharray="none" d="M0,0 L0,0 M0,0 L0,0 M0,1514.776 L0,1514.776 M0,0 L0,0 M0,118 L0,158 M0,298.73 L0,380.397 M0,489.73 L0,521.397 M0,648.694 L0,713.694 M0,839.73 L0,904.73 M0,1041.73 L0,1106.73 M0,1192.73 L0,1257.73 M0,1343.73 L0,1408.73"/><g><g stroke-dasharray="none"><path d="M5,158L0,168L-5,158z" stroke="none" fill-opacity="1"/></g><g stroke-dasharray="none"><path d="M5,380.397L0,390.397L-5,380.397z" stroke="none" fill-opacity="1"/></g><g stroke-dasharray="none"><path d="M5,521.397L0,531.397L-5,521.397z" stroke="none" fill-opacity="1"/></g><g stroke-dasharray="none"><path d="M5,713.694L0,723.694L-5,713.694z" stroke="none" fill-opacity="1"/></g><g stroke-dasharray="none"><path d="M5,904.73L0,914.73L-5,904.73z" stroke="none" fill-opacity="1"/></g><g stroke-dasharray="none"><path d="M5,1106.73L0,1116.73L-5,1106.73z" stroke="none" fill-opacity="1"/></g><g stroke-dasharray="none"><path d="M5,1257.73L0,1267.73L-5,1257.73z" stroke="none" fill-opacity="1"/></g><g stroke-dasharray="none"><path d="M5,1408.73L0,1418.73L-5,1408.73z" stroke="none" fill-opacity="1"/></g></g></g><g stroke-width="0" stroke-dasharray="none" fill="#FFFFFF" opacity="1" width="24.656" height="17.625" transform="scale(1,1) translate(-12.328,335.751)"><rect width="24.656" height="17.625"/></g><g width="22.65625" height="91.66666666666663" transform="scale(1,1) translate(-11.328,336.751)"><text width="22.65625" height="15.625000953674316" transform="scale(1,1) translate(0,0)" xml:space="preserve"><tspan xml:space="preserve" text-rendering="optimizeSpeed" style="font-family: Arial, Helvetica Neue, Helvetica, sans-serif;" font-size="13.88888888888889" font-weight="normal" font-style="normal" text-decoration="none" fill="#333333" opacity="1" x="0" text-anchor="start" y="12.5" textLength="22.65625">Yes</tspan></text></g><g stroke-width="0" stroke-dasharray="none" fill="#FFFFFF" opacity="1" width="24.656" height="17.625" transform="scale(1,1) translate(-12.328,677.381)"><rect width="24.656" height="17.625"/></g><g width="22.65625" height="75" transform="scale(1,1) translate(-11.328,678.381)"><text width="22.65625" height="15.625000953674316" transform="scale(1,1) translate(0,0)" xml:space="preserve"><tspan xml:space="preserve" text-rendering="optimizeSpeed" style="font-family: Arial, Helvetica Neue, Helvetica, sans-serif;" font-size="13.88888888888889" font-weight="normal" font-style="normal" text-decoration="none" fill="#333333" opacity="1" x="0" text-anchor="start" y="12.5" textLength="22.65625">Yes</tspan></text></g><g stroke-width="0" stroke-dasharray="none" fill="#FFFFFF" opacity="1" width="54.5" height="17.625" transform="scale(1,1) translate(-27.25,1070.418)"><rect width="54.5" height="17.625"/></g><g width="52.50000762939453" height="75" transform="scale(1,1) translate(-26.25,1071.418)"><text width="52.50000762939453" height="15.625000953674316" transform="scale(1,1) translate(0,0)" xml:space="preserve"><tspan xml:space="preserve" text-rendering="optimizeSpeed" style="font-family: Arial, Helvetica Neue, Helvetica, sans-serif;" font-size="13.88888888888889" font-weight="normal" font-style="normal" text-decoration="none" fill="#333333" opacity="1" x="0" text-anchor="start" y="12.5" textLength="52.50000762939453">INVOKE</tspan></text></g></g><g width="325.5" height="117" transform="scale(1,1) translate(271.507,36.27)"><g transform="scale(1,1) translate(0,0)" stroke="#FBD585" fill="#FBD585" fill-opacity="1" stroke-opacity="1"><path d="M58,0 L44.95,1.487 L39.665,2.974 L35.692,4.462 L32.414,5.949 L29.587,7.436 L27.09,8.923 L24.846,10.41 L22.807,11.897 L20.94,13.385 L19.219,14.872 L17.626,16.359 L16.147,17.846 L14.769,19.333 L13.484,20.821 L12.283,22.308 L11.16,23.795 L10.109,25.282 L9.126,26.769 L8.207,28.256 L7.348,29.744 L6.547,31.231 L5.8,32.718 L5.106,34.205 L4.462,35.692 L3.866,37.179 L3.317,38.667 L2.814,40.154 L2.355,41.641 L1.939,43.128 L1.566,44.615 L1.233,46.103 L0.942,47.59 L0.691,49.077 L0.479,50.564 L0.306,52.051 L0.172,53.538 L0.076,55.026 L0.019,56.513 L0,58 L0,59 L0.019,60.487 L0.076,61.974 L0.172,63.462 L0.306,64.949 L0.479,66.436 L0.691,67.923 L0.942,69.41 L1.233,70.897 L1.566,72.385 L1.939,73.872 L2.355,75.359 L2.814,76.846 L3.317,78.333 L3.866,79.821 L4.462,81.308 L5.106,82.795 L5.8,84.282 L6.547,85.769 L7.348,87.256 L8.207,88.744 L9.126,90.231 L10.109,91.718 L11.16,93.205 L12.283,94.692 L13.484,96.179 L14.769,97.667 L16.147,99.154 L17.626,100.641 L19.219,102.128 L20.94,103.615 L22.807,105.103 L24.846,106.59 L27.09,108.077 L29.587,109.564 L32.414,111.051 L35.692,112.538 L39.665,114.026 L44.95,115.513 L58,117 L267.5,117 L280.55,115.513 L285.835,114.026 L289.808,112.538 L293.086,111.051 L295.913,109.564 L298.41,108.077 L300.654,106.59 L302.693,105.103 L304.56,103.615 L306.281,102.128 L307.874,100.641 L309.353,99.154 L310.731,97.667 L312.016,96.179 L313.217,94.692 L314.34,93.205 L315.391,91.718 L316.374,90.231 L317.293,88.744 L318.152,87.256 L318.953,85.769 L319.7,84.282 L320.394,82.795 L321.038,81.308 L321.634,79.821 L322.183,78.333 L322.686,76.846 L323.145,75.359 L323.561,73.872 L323.934,72.385 L324.267,70.897 L324.558,69.41 L324.809,67.923 L325.021,66.436 L325.194,64.949 L325.328,63.462 L325.424,61.974 L325.481,60.487 L325.5,59 L325.5,58 L325.481,56.513 L325.424,55.026 L325.328,53.538 L325.194,52.051 L325.021,50.564 L324.809,49.077 L324.558,47.59 L324.267,46.103 L323.934,44.615 L323.561,43.128 L323.145,41.641 L322.686,40.154 L322.183,38.667 L321.634,37.179 L321.038,35.692 L320.394,34.205 L319.7,32.718 L318.953,31.231 L318.152,29.744 L317.293,28.256 L316.374,26.769 L315.391,25.282 L314.34,23.795 L313.217,22.308 L312.016,20.821 L310.731,19.333 L309.353,17.846 L307.874,16.359 L306.281,14.872 L304.56,13.385 L302.693,11.897 L300.654,10.41 L298.41,8.923 L295.913,7.436 L293.086,5.949 L289.808,4.462 L285.835,2.974 L280.55,1.487 L267.5,0 L58,0 z" stroke-width="1" stroke-dasharray="none"/></g><g width="225.456150759" height="78.024386712" transform="scale(1,1) translate(50.022,19.488)"><text width="225.456150759" height="46.87500286102295" transform="scale(1,1) translate(0,15.574691925488523)" xml:space="preserve"><tspan xml:space="preserve" text-rendering="optimizeSpeed" style="font-family: Arial, Helvetica Neue, Helvetica, sans-serif;" font-size="13.88888888888889" font-weight="normal" font-style="normal" text-decoration="none" fill="#333333" opacity="1" x="6.2" text-anchor="start" y="12.5" textLength="209.20140075683594">Direct method invocation recieved</tspan><tspan xml:space="preserve" text-rendering="optimizeSpeed" style="font-family: Arial, Helvetica Neue, Helvetica, sans-serif;" font-size="13.88888888888889" font-weight="normal" font-style="normal" text-decoration="none" fill="#333333" opacity="1" x="67.563" text-anchor="start" y="28.125" textLength="90.32986450195312">by the DSLink:</tspan><tspan xml:space="preserve" text-rendering="optimizeSpeed" style="font-family: Arial, Helvetica Neue, Helvetica, sans-serif;" font-size="13.88888888888889" font-weight="normal" font-style="normal" text-decoration="none" fill="#333333" opacity="1" x="18.188" text-anchor="start" y="43.75" textLength="189.0798797607422">[methodName, parameterMap]</tspan></text></g></g><g width="279.061" height="0" transform="scale(1,1) translate(563.988,269.135)"><g fill="#545454" stroke="#545454" stroke-opacity="1" transform="scale(1,1) translate(0,0)"><path fill="none" stroke-width="1" stroke-dasharray="none" d="M75,0 L75,0 M0,0 L65,0 M279.061,0 L279.061,0 M75,0 L75,0"/><g><g stroke-dasharray="none"><path d="M65,-5L75,0L65,5z" stroke="none" fill-opacity="1"/></g></g></g><g stroke-width="0" stroke-dasharray="none" fill="#FFFFFF" opacity="1" width="19.76" height="17.625" transform="scale(1,1) translate(27.62,-8.813)"><rect width="19.76" height="17.625"/></g><g width="17.760417938232422" height="40" transform="scale(1,1) translate(28.62,-7.813)"><text width="17.760417938232422" height="15.625000953674316" transform="scale(1,1) translate(0,0)" xml:space="preserve"><tspan xml:space="preserve" text-rendering="optimizeSpeed" style="font-family: Arial, Helvetica Neue, Helvetica, sans-serif;" font-size="13.88888888888889" font-weight="normal" font-style="normal" text-decoration="none" fill="#333333" opacity="1" x="0" text-anchor="start" y="12.5" textLength="17.760417938232422">No</tspan></text></g></g><g width="259.461" height="129.73" transform="scale(1,1) translate(304.527,204.27)"><g transform="scale(1,1) translate(0,0)" stroke="#B3D7EE" fill="#B3D7EE" fill-opacity="1" stroke-opacity="1"><path d="M129.73,0 L259.461,64.865 L129.73,129.73 L0,64.865 L129.73,0 z" stroke-width="1" stroke-dasharray="none"/></g><g width="129.2304725944996" height="64.3652362972498" transform="scale(1,1) translate(65.115,32.683)"><text width="129.2304725944996" height="62.500003814697266" transform="scale(1,1) translate(0,0.9326162412762642)" xml:space="preserve"><tspan xml:space="preserve" text-rendering="optimizeSpeed" style="font-family: Arial, Helvetica Neue, Helvetica, sans-serif;" font-size="13.88888888888889" font-weight="normal" font-style="normal" text-decoration="none" fill="#333333" opacity="1" x="0" text-anchor="start" y="12.5" textLength="128.94097900390625">Does a method node</tspan><tspan xml:space="preserve" text-rendering="optimizeSpeed" style="font-family: Arial, Helvetica Neue, Helvetica, sans-serif;" font-size="13.88888888888889" font-weight="normal" font-style="normal" text-decoration="none" fill="#333333" opacity="1" x="0" text-anchor="start" y="28.125" textLength="128.83680725097656">called 'methodName'</tspan><tspan xml:space="preserve" text-rendering="optimizeSpeed" style="font-family: Arial, Helvetica Neue, Helvetica, sans-serif;" font-size="13.88888888888889" font-weight="normal" font-style="normal" text-decoration="none" fill="#333333" opacity="1" x="17.141" text-anchor="start" y="43.75" textLength="91.09375">exist under the</tspan><tspan xml:space="preserve" text-rendering="optimizeSpeed" style="font-family: Arial, Helvetica Neue, Helvetica, sans-serif;" font-size="13.88888888888889" font-weight="normal" font-style="normal" text-decoration="none" fill="#333333" opacity="1" x="14.086" text-anchor="start" y="59.375" textLength="101.05905151367188">'Methods' node?</tspan></text></g></g><g width="203.229" height="75" transform="scale(1,1) translate(332.643,1153)"><g stroke="#B3D7EE" stroke-opacity="1" stroke-width="1" stroke-dasharray="none" width="203.229" height="75" transform="scale(1,1) translate(0,0)" fill="#B3D7EE" fill-opacity="1" filter="url(#2cc299ce-98f0-4c4f-8ffc-f08e161c1859)"><rect width="203.229" height="75"/></g><g width="202.22915770610194" height="74.00000000000011" transform="scale(1,1) translate(0.5,0.5)"><text width="202.22915770610194" height="62.500003814697266" transform="scale(1,1) translate(0,5.749998092651424)" xml:space="preserve"><tspan xml:space="preserve" text-rendering="optimizeSpeed" style="font-family: Arial, Helvetica Neue, Helvetica, sans-serif;" font-size="13.88888888888889" font-weight="normal" font-style="normal" text-decoration="none" fill="#333333" opacity="1" x="22.755" text-anchor="start" y="12.5" textLength="152.86459350585938">Invoke the DSA action at</tspan><tspan xml:space="preserve" text-rendering="optimizeSpeed" style="font-family: Arial, Helvetica Neue, Helvetica, sans-serif;" font-size="13.88888888888889" font-weight="normal" font-style="normal" text-decoration="none" fill="#333333" opacity="1" x="30.854" text-anchor="start" y="28.125" textLength="136.6666717529297">resolvedPath, passing</tspan><tspan xml:space="preserve" text-rendering="optimizeSpeed" style="font-family: Arial, Helvetica Neue, Helvetica, sans-serif;" font-size="13.88888888888889" font-weight="normal" font-style="normal" text-decoration="none" fill="#333333" opacity="1" x="7.937" text-anchor="start" y="43.75" textLength="182.50003051757812">parameterMap as the action's</tspan><tspan xml:space="preserve" text-rendering="optimizeSpeed" style="font-family: Arial, Helvetica Neue, Helvetica, sans-serif;" font-size="13.88888888888889" font-weight="normal" font-style="normal" text-decoration="none" fill="#333333" opacity="1" x="66.002" text-anchor="start" y="59.375" textLength="70.22573852539062">parameters</tspan></text></g></g><g width="203.061" height="101.531" transform="scale(1,1) translate(638.988,218.369)"><g transform="scale(1,1) translate(0,0)" stroke="#B3D7EE" fill="#B3D7EE" fill-opacity="1" stroke-opacity="1"><path d="M50,0 L38.75,1.282 L34.194,2.564 L30.769,3.846 L27.943,5.128 L25.506,6.41 L23.353,7.692 L21.419,8.974 L19.661,10.256 L18.051,11.538 L16.568,12.821 L15.195,14.103 L13.92,15.385 L12.732,16.667 L11.624,17.949 L10.589,19.231 L9.62,20.513 L8.715,21.795 L7.867,23.077 L7.075,24.359 L6.335,25.641 L5.644,26.923 L5,28.205 L4.401,29.487 L3.846,30.769 L3.333,32.051 L2.86,33.333 L2.426,34.615 L2.03,35.897 L1.672,37.179 L1.35,38.462 L1.063,39.744 L0.812,41.026 L0.595,42.308 L0.413,43.59 L0.264,44.872 L0.148,46.154 L0.066,47.436 L0.016,48.718 L0,50 L0,51.531 L0.016,52.813 L0.066,54.095 L0.148,55.377 L0.264,56.659 L0.413,57.941 L0.595,59.223 L0.812,60.505 L1.063,61.787 L1.35,63.069 L1.672,64.351 L2.03,65.633 L2.426,66.915 L2.86,68.197 L3.333,69.479 L3.846,70.761 L4.401,72.043 L5,73.325 L5.644,74.607 L6.335,75.89 L7.075,77.172 L7.867,78.454 L8.715,79.736 L9.62,81.018 L10.589,82.3 L11.624,83.582 L12.732,84.864 L13.92,86.146 L15.195,87.428 L16.568,88.71 L18.051,89.992 L19.661,91.274 L21.419,92.556 L23.353,93.838 L25.506,95.12 L27.943,96.402 L30.769,97.684 L34.194,98.966 L38.75,100.249 L50,101.531 L153.061,101.531 L164.311,100.249 L168.867,98.966 L172.292,97.684 L175.118,96.402 L177.555,95.12 L179.708,93.838 L181.643,92.556 L183.4,91.274 L185.01,89.992 L186.493,88.71 L187.866,87.428 L189.141,86.146 L190.329,84.864 L191.437,83.582 L192.472,82.3 L193.441,81.018 L194.346,79.736 L195.194,78.454 L195.986,77.172 L196.726,75.89 L197.417,74.607 L198.061,73.325 L198.66,72.043 L199.215,70.761 L199.728,69.479 L200.202,68.197 L200.635,66.915 L201.031,65.633 L201.39,64.351 L201.712,63.069 L201.998,61.787 L202.249,60.505 L202.466,59.223 L202.648,57.941 L202.797,56.659 L202.913,55.377 L202.995,54.095 L203.045,52.813 L203.061,51.531 L203.061,50 L203.045,48.718 L202.995,47.436 L202.913,46.154 L202.797,44.872 L202.648,43.59 L202.466,42.308 L202.249,41.026 L201.998,39.744 L201.712,38.462 L201.39,37.179 L201.031,35.897 L200.635,34.615 L200.202,33.333 L199.728,32.051 L199.215,30.769 L198.66,29.487 L198.061,28.205 L197.417,26.923 L196.726,25.641 L195.986,24.359 L195.194,23.077 L194.346,21.795 L193.441,20.513 L192.472,19.231 L191.437,17.949 L190.329,16.667 L189.141,15.385 L187.866,14.103 L186.493,12.821 L185.01,11.538 L183.4,10.256 L181.643,8.974 L179.708,7.692 L177.555,6.41 L175.118,5.128 L172.292,3.846 L168.867,2.564 L164.311,1.282 L153.061,0 L50,0 z" stroke-width="1" stroke-dasharray="none"/></g><g width="138.87878493532304" height="67.08583907666153" transform="scale(1,1) translate(32.091,17.222)"><text width="138.87878493532304" height="62.500003814697266" transform="scale(1,1) translate(0,2.2929176309821315)" xml:space="preserve"><tspan xml:space="preserve" text-rendering="optimizeSpeed" style="font-family: Arial, Helvetica Neue, Helvetica, sans-serif;" font-size="13.88888888888889" font-weight="normal" font-style="normal" text-decoration="none" fill="#333333" opacity="1" x="20.412" text-anchor="start" y="12.5" textLength="94.2013931274414">Respond to the</tspan><tspan xml:space="preserve" text-rendering="optimizeSpeed" style="font-family: Arial, Helvetica Neue, Helvetica, sans-serif;" font-size="13.88888888888889" font-weight="normal" font-style="normal" text-decoration="none" fill="#333333" opacity="1" x="21.957" text-anchor="start" y="28.125" textLength="91.11112213134766">invocation with</tspan><tspan xml:space="preserve" text-rendering="optimizeSpeed" style="font-family: Arial, Helvetica Neue, Helvetica, sans-serif;" font-size="13.88888888888889" font-weight="normal" font-style="normal" text-decoration="none" fill="#333333" opacity="1" x="0" text-anchor="start" y="43.75" textLength="138.47222900390625">"Method methodName</tspan><tspan xml:space="preserve" text-rendering="optimizeSpeed" style="font-family: Arial, Helvetica Neue, Helvetica, sans-serif;" font-size="13.88888888888889" font-weight="normal" font-style="normal" text-decoration="none" fill="#333333" opacity="1" x="38.016" text-anchor="start" y="59.375" textLength="62.847198486328125">not found"</tspan></text></g></g><g width="226" height="0" transform="scale(1,1) translate(550.554,625.815)"><g fill="#545454" stroke="#545454" stroke-opacity="1" transform="scale(1,1) translate(0,0)"><path fill="none" stroke-width="1" stroke-dasharray="none" d="M75,0 L75,0 M0,0 L65,0 M226,0 L226,0 M75,0 L75,0"/><g><g stroke-dasharray="none"><path d="M65,-5L75,0L65,5z" stroke="none" fill-opacity="1"/></g></g></g><g stroke-width="0" stroke-dasharray="none" fill="#FFFFFF" opacity="1" width="19.76" height="17.625" transform="scale(1,1) translate(27.62,-8.813)"><rect width="19.76" height="17.625"/></g><g width="17.760417938232422" height="40" transform="scale(1,1) translate(28.62,-7.813)"><text width="17.760417938232422" height="15.625000953674316" transform="scale(1,1) translate(0,0)" xml:space="preserve"><tspan xml:space="preserve" text-rendering="optimizeSpeed" style="font-family: Arial, Helvetica Neue, Helvetica, sans-serif;" font-size="13.88888888888889" font-weight="normal" font-style="normal" text-decoration="none" fill="#333333" opacity="1" x="0" text-anchor="start" y="12.5" textLength="17.760417938232422">No</tspan></text></g></g><g width="232.593" height="116.297" transform="scale(1,1) translate(317.96,567.667)"><g transform="scale(1,1) translate(0,0)" stroke="#B3D7EE" fill="#B3D7EE" fill-opacity="1" stroke-opacity="1"><path d="M116.297,0 L232.593,58.148 L116.297,116.297 L0,58.148 L116.297,0 z" stroke-width="1" stroke-dasharray="none"/></g><g width="115.79673709171398" height="57.64836854585699" transform="scale(1,1) translate(58.398,29.324)"><text width="115.79673709171398" height="46.87500286102295" transform="scale(1,1) translate(0,5.38668284241702)" xml:space="preserve"><tspan xml:space="preserve" text-rendering="optimizeSpeed" style="font-family: Arial, Helvetica Neue, Helvetica, sans-serif;" font-size="13.88888888888889" font-weight="normal" font-style="normal" text-decoration="none" fill="#333333" opacity="1" x="3.089" text-anchor="start" y="12.5" textLength="105.76390075683594">Does the method</tspan><tspan xml:space="preserve" text-rendering="optimizeSpeed" style="font-family: Arial, Helvetica Neue, Helvetica, sans-serif;" font-size="13.88888888888889" font-weight="normal" font-style="normal" text-decoration="none" fill="#333333" opacity="1" x="0" text-anchor="start" y="28.125" textLength="115.22570037841797">node's "Path" child</tspan><tspan xml:space="preserve" text-rendering="optimizeSpeed" style="font-family: Arial, Helvetica Neue, Helvetica, sans-serif;" font-size="13.88888888888889" font-weight="normal" font-style="normal" text-decoration="none" fill="#333333" opacity="1" x="14.652" text-anchor="start" y="43.75" textLength="86.49307250976562">have a value?</tspan></text></g></g><g width="150" height="75" transform="scale(1,1) translate(625.554,588.315)"><g transform="scale(1,1) translate(0,0)" stroke="#B3D7EE" fill="#B3D7EE" fill-opacity="1" stroke-opacity="1"><path d="M37,0 L28.675,0.949 L25.303,1.897 L22.769,2.846 L20.678,3.795 L18.875,4.744 L17.281,5.692 L15.85,6.641 L14.549,7.59 L13.358,8.538 L12.26,9.487 L11.244,10.436 L10.301,11.385 L9.422,12.333 L8.602,13.282 L7.836,14.231 L7.119,15.179 L6.449,16.128 L5.822,17.077 L5.236,18.026 L4.688,18.974 L4.177,19.923 L3.7,20.872 L3.257,21.821 L2.846,22.769 L2.466,23.718 L2.116,24.667 L1.795,25.615 L1.502,26.564 L1.237,27.513 L0.999,28.462 L0.787,29.41 L0.601,30.359 L0.44,31.308 L0.305,32.256 L0.195,33.205 L0.11,34.154 L0.049,35.103 L0.012,36.051 L0,37 L0,38 L0.012,38.949 L0.049,39.897 L0.11,40.846 L0.195,41.795 L0.305,42.744 L0.44,43.692 L0.601,44.641 L0.787,45.59 L0.999,46.538 L1.237,47.487 L1.502,48.436 L1.795,49.385 L2.116,50.333 L2.466,51.282 L2.846,52.231 L3.257,53.179 L3.7,54.128 L4.177,55.077 L4.688,56.026 L5.236,56.974 L5.822,57.923 L6.449,58.872 L7.119,59.821 L7.836,60.769 L8.602,61.718 L9.422,62.667 L10.301,63.615 L11.244,64.564 L12.26,65.513 L13.358,66.462 L14.549,67.41 L15.85,68.359 L17.281,69.308 L18.875,70.256 L20.678,71.205 L22.769,72.154 L25.303,73.103 L28.675,74.051 L37,75 L113,75 L121.325,74.051 L124.697,73.103 L127.231,72.154 L129.322,71.205 L131.125,70.256 L132.719,69.308 L134.15,68.359 L135.451,67.41 L136.642,66.462 L137.74,65.513 L138.756,64.564 L139.699,63.615 L140.578,62.667 L141.398,61.718 L142.164,60.769 L142.881,59.821 L143.551,58.872 L144.178,57.923 L144.764,56.974 L145.312,56.026 L145.823,55.077 L146.3,54.128 L146.743,53.179 L147.154,52.231 L147.534,51.282 L147.884,50.333 L148.205,49.385 L148.498,48.436 L148.763,47.487 L149.001,46.538 L149.213,45.59 L149.399,44.641 L149.56,43.692 L149.695,42.744 L149.805,41.795 L149.89,40.846 L149.951,39.897 L149.988,38.949 L150,38 L150,37 L149.988,36.051 L149.951,35.103 L149.89,34.154 L149.805,33.205 L149.695,32.256 L149.56,31.308 L149.399,30.359 L149.213,29.41 L149.001,28.462 L148.763,27.513 L148.498,26.564 L148.205,25.615 L147.884,24.667 L147.534,23.718 L147.154,22.769 L146.743,21.821 L146.3,20.872 L145.823,19.923 L145.312,18.974 L144.764,18.026 L144.178,17.077 L143.551,16.128 L142.881,15.179 L142.164,14.231 L141.398,13.282 L140.578,12.333 L139.699,11.385 L138.756,10.436 L137.74,9.487 L136.642,8.538 L135.451,7.59 L134.15,6.641 L132.719,5.692 L131.125,4.744 L129.322,3.795 L127.231,2.846 L124.697,1.897 L121.325,0.949 L113,0 L37,0 z" stroke-width="1" stroke-dasharray="none"/></g><g width="101.358910518" height="48.325901868" transform="scale(1,1) translate(24.321,13.337)"><text width="101.358910518" height="46.87500286102295" transform="scale(1,1) translate(0,0.7254495034885267)" xml:space="preserve"><tspan xml:space="preserve" text-rendering="optimizeSpeed" style="font-family: Arial, Helvetica Neue, Helvetica, sans-serif;" font-size="13.88888888888889" font-weight="normal" font-style="normal" text-decoration="none" fill="#333333" opacity="1" x="1.652" text-anchor="start" y="12.5" textLength="94.2013931274414">Respond to the</tspan><tspan xml:space="preserve" text-rendering="optimizeSpeed" style="font-family: Arial, Helvetica Neue, Helvetica, sans-serif;" font-size="13.88888888888889" font-weight="normal" font-style="normal" text-decoration="none" fill="#333333" opacity="1" x="3.197" text-anchor="start" y="28.125" textLength="91.11112213134766">invocation with</tspan><tspan xml:space="preserve" text-rendering="optimizeSpeed" style="font-family: Arial, Helvetica Neue, Helvetica, sans-serif;" font-size="13.88888888888889" font-weight="normal" font-style="normal" text-decoration="none" fill="#333333" opacity="1" x="17.572" text-anchor="start" y="43.75" textLength="62.361114501953125">"Success"</tspan></text></g></g><g width="307.757" height="0" transform="scale(1,1) translate(0.5,1014)"><g fill="#545454" stroke="#545454" stroke-opacity="1" transform="scale(1,1) translate(0,0)"><path fill="none" stroke-width="1" stroke-dasharray="none" d="M0,0 L0,0 M0,0 L0,0 M201.09,0 L307.757,0 M0,0 L0,0"/><g><g stroke-dasharray="none"><path d="M201.09,5L191.09,0L201.09,-5z" stroke="none" fill-opacity="1"/></g></g></g><g stroke-width="0" stroke-dasharray="none" fill="#FFFFFF" opacity="1" width="29.014" height="17.625" transform="scale(1,1) translate(234.917,-8.813)"><rect width="29.014" height="17.625"/></g><g width="27.013891220092773" height="40" transform="scale(1,1) translate(235.917,-7.813)"><text width="27.013891220092773" height="15.625000953674316" transform="scale(1,1) translate(0,0)" xml:space="preserve"><tspan xml:space="preserve" text-rendering="optimizeSpeed" style="font-family: Arial, Helvetica Neue, Helvetica, sans-serif;" font-size="13.88888888888889" font-weight="normal" font-style="normal" text-decoration="none" fill="#333333" opacity="1" x="0" text-anchor="start" y="12.5" textLength="27.013891220092773">GET</tspan></text></g></g><g width="339.663" height="0" transform="scale(1,1) translate(560.257,1014)"><g fill="#545454" stroke="#545454" stroke-opacity="1" transform="scale(1,1) translate(0,0)"><path fill="none" stroke-width="1" stroke-dasharray="none" d="M75,0 L75,0 M0,0 L65,0 M339.663,0 L339.663,0 M75,0 L75,0"/><g><g stroke-dasharray="none"><path d="M65,-5L75,0L65,5z" stroke="none" fill-opacity="1"/></g></g></g><g stroke-width="0" stroke-dasharray="none" fill="#FFFFFF" opacity="1" width="27.486" height="17.625" transform="scale(1,1) translate(23.757,-8.813)"><rect width="27.486" height="17.625"/></g><g width="25.486112594604492" height="40" transform="scale(1,1) translate(24.757,-7.813)"><text width="25.486112594604492" height="15.625000953674316" transform="scale(1,1) translate(0,0)" xml:space="preserve"><tspan xml:space="preserve" text-rendering="optimizeSpeed" style="font-family: Arial, Helvetica Neue, Helvetica, sans-serif;" font-size="13.88888888888889" font-weight="normal" font-style="normal" text-decoration="none" fill="#333333" opacity="1" x="0" text-anchor="start" y="12.5" textLength="25.486112594604492">SET</tspan></text></g></g><g width="252" height="126" transform="scale(1,1) translate(308.257,951)"><g transform="scale(1,1) translate(0,0)" stroke="#B3D7EE" fill="#B3D7EE" fill-opacity="1" stroke-opacity="1"><path d="M126,0 L252,63 L126,126 L0,63 L126,0 z" stroke-width="1" stroke-dasharray="none"/></g><g width="125.50000762939453" height="62.500003814697266" transform="scale(1,1) translate(63.25,31.75)"><text width="125.50000762939453" height="62.500003814697266" transform="scale(1,1) translate(0,0)" xml:space="preserve"><tspan xml:space="preserve" text-rendering="optimizeSpeed" style="font-family: Arial, Helvetica Neue, Helvetica, sans-serif;" font-size="13.88888888888889" font-weight="normal" font-style="normal" text-decoration="none" fill="#333333" opacity="1" x="0" text-anchor="start" y="12.5" textLength="121.9618148803711">What is the value of</tspan><tspan xml:space="preserve" text-rendering="optimizeSpeed" style="font-family: Arial, Helvetica Neue, Helvetica, sans-serif;" font-size="13.88888888888889" font-weight="normal" font-style="normal" text-decoration="none" fill="#333333" opacity="1" x="3.905" text-anchor="start" y="28.125" textLength="113.83682250976562">the method node's</tspan><tspan xml:space="preserve" text-rendering="optimizeSpeed" style="font-family: Arial, Helvetica Neue, Helvetica, sans-serif;" font-size="13.88888888888889" font-weight="normal" font-style="normal" text-decoration="none" fill="#333333" opacity="1" x="16.517" text-anchor="start" y="43.75" textLength="88.61111450195312">"DSA Method"</tspan><tspan xml:space="preserve" text-rendering="optimizeSpeed" style="font-family: Arial, Helvetica Neue, Helvetica, sans-serif;" font-size="13.88888888888889" font-weight="normal" font-style="normal" text-decoration="none" fill="#333333" opacity="1" x="44.599" text-anchor="start" y="59.375" textLength="36.302093505859375">child?</tspan></text></g></g><g width="190.09" height="95.045" transform="scale(1,1) translate(0.5,966.477)"><g transform="scale(1,1) translate(0,0)" stroke="#B3D7EE" fill="#B3D7EE" fill-opacity="1" stroke-opacity="1"><path d="M47,0 L36.425,1.205 L32.142,2.41 L28.923,3.615 L26.266,4.821 L23.976,6.026 L21.952,7.231 L20.133,8.436 L18.481,9.641 L16.968,10.846 L15.574,12.051 L14.283,13.256 L13.085,14.462 L11.968,15.667 L10.927,16.872 L9.953,18.077 L9.043,19.282 L8.192,20.487 L7.395,21.692 L6.651,22.897 L5.955,24.103 L5.305,25.308 L4.7,26.513 L4.137,27.718 L3.615,28.923 L3.133,30.128 L2.688,31.333 L2.28,32.538 L1.908,33.744 L1.571,34.949 L1.269,36.154 L0.999,37.359 L0.763,38.564 L0.56,39.769 L0.388,40.974 L0.248,42.179 L0.139,43.385 L0.062,44.59 L0.015,45.795 L0,47 L0,48.045 L0.015,49.25 L0.062,50.455 L0.139,51.661 L0.248,52.866 L0.388,54.071 L0.56,55.276 L0.763,56.481 L0.999,57.686 L1.269,58.891 L1.571,60.096 L1.908,61.302 L2.28,62.507 L2.688,63.712 L3.133,64.917 L3.615,66.122 L4.137,67.327 L4.7,68.532 L5.305,69.738 L5.955,70.943 L6.651,72.148 L7.395,73.353 L8.192,74.558 L9.043,75.763 L9.953,76.968 L10.927,78.173 L11.968,79.379 L13.085,80.584 L14.283,81.789 L15.574,82.994 L16.968,84.199 L18.481,85.404 L20.133,86.609 L21.952,87.814 L23.976,89.02 L26.266,90.225 L28.923,91.43 L32.142,92.635 L36.425,93.84 L47,95.045 L143.09,95.045 L153.665,93.84 L157.948,92.635 L161.167,91.43 L163.824,90.225 L166.114,89.02 L168.139,87.814 L169.957,86.609 L171.609,85.404 L173.122,84.199 L174.516,82.994 L175.807,81.789 L177.006,80.584 L178.122,79.379 L179.164,78.173 L180.137,76.968 L181.047,75.763 L181.899,74.558 L182.695,73.353 L183.44,72.148 L184.136,70.943 L184.785,69.738 L185.39,68.532 L185.953,67.327 L186.475,66.122 L186.958,64.917 L187.402,63.712 L187.81,62.507 L188.182,61.302 L188.519,60.096 L188.822,58.891 L189.091,57.686 L189.327,56.481 L189.531,55.276 L189.703,54.071 L189.843,52.866 L189.951,51.661 L190.029,50.455 L190.075,49.25 L190.09,48.045 L190.09,47 L190.075,45.795 L190.029,44.59 L189.951,43.385 L189.843,42.179 L189.703,40.974 L189.531,39.769 L189.327,38.564 L189.091,37.359 L188.822,36.154 L188.519,34.949 L188.182,33.744 L187.81,32.538 L187.402,31.333 L186.958,30.128 L186.475,28.923 L185.953,27.718 L185.39,26.513 L184.785,25.308 L184.136,24.103 L183.44,22.897 L182.695,21.692 L181.899,20.487 L181.047,19.282 L180.137,18.077 L179.164,16.872 L178.122,15.667 L177.006,14.462 L175.807,13.256 L174.516,12.051 L173.122,10.846 L171.609,9.641 L169.957,8.436 L168.139,7.231 L166.114,6.026 L163.824,4.821 L161.167,3.615 L157.948,2.41 L153.665,1.205 L143.09,0 L47,0 z" stroke-width="1" stroke-dasharray="none"/></g><g width="129.70711441139454" height="62.50000381469728" transform="scale(1,1) translate(30.192,16.273)"><text width="129.70711441139454" height="62.500003814697266" transform="scale(1,1) translate(0,7.105427357601002e-15)" xml:space="preserve"><tspan xml:space="preserve" text-rendering="optimizeSpeed" style="font-family: Arial, Helvetica Neue, Helvetica, sans-serif;" font-size="13.88888888888889" font-weight="normal" font-style="normal" text-decoration="none" fill="#333333" opacity="1" x="13.907" text-anchor="start" y="12.5" textLength="98.03820037841797">Get the value at</tspan><tspan xml:space="preserve" text-rendering="optimizeSpeed" style="font-family: Arial, Helvetica Neue, Helvetica, sans-serif;" font-size="13.88888888888889" font-weight="normal" font-style="normal" text-decoration="none" fill="#333333" opacity="1" x="8.873" text-anchor="start" y="28.125" textLength="108.1076431274414">resolvedPath and</tspan><tspan xml:space="preserve" text-rendering="optimizeSpeed" style="font-family: Arial, Helvetica Neue, Helvetica, sans-serif;" font-size="13.88888888888889" font-weight="normal" font-style="normal" text-decoration="none" fill="#333333" opacity="1" x="18.534" text-anchor="start" y="43.75" textLength="88.78472900390625">respond to the</tspan><tspan xml:space="preserve" text-rendering="optimizeSpeed" style="font-family: Arial, Helvetica Neue, Helvetica, sans-serif;" font-size="13.88888888888889" font-weight="normal" font-style="normal" text-decoration="none" fill="#333333" opacity="1" x="13.899" text-anchor="start" y="59.375" textLength="101.90972900390625">invocation with it</tspan></text></g></g><g width="173" height="98.333" transform="scale(1,1) translate(347.757,426.667)"><g stroke="#B3D7EE" stroke-opacity="1" stroke-width="1" stroke-dasharray="none" width="173" height="98.333" transform="scale(1,1) translate(0,0)" fill="#B3D7EE" fill-opacity="1"><rect width="173" height="98.333"/></g><g width="167.99999284744285" height="93.33334523439402" transform="scale(1,1) translate(2.5,2.5)"><text width="167.99999284744285" height="62.500003814697266" transform="scale(1,1) translate(0,15.416670709848376)" xml:space="preserve"><tspan xml:space="preserve" text-rendering="optimizeSpeed" style="font-family: Arial, Helvetica Neue, Helvetica, sans-serif;" font-size="13.88888888888889" font-weight="normal" font-style="normal" text-decoration="none" fill="#333333" opacity="1" x="6.431" text-anchor="start" y="12.5" textLength="151.28472900390625">Store the timestamp and</tspan><tspan xml:space="preserve" text-rendering="optimizeSpeed" style="font-family: Arial, Helvetica Neue, Helvetica, sans-serif;" font-size="13.88888888888889" font-weight="normal" font-style="normal" text-decoration="none" fill="#333333" opacity="1" x="18.01" text-anchor="start" y="28.125" textLength="128.12501525878906">parameterMap in the</tspan><tspan xml:space="preserve" text-rendering="optimizeSpeed" style="font-family: Arial, Helvetica Neue, Helvetica, sans-serif;" font-size="13.88888888888889" font-weight="normal" font-style="normal" text-decoration="none" fill="#333333" opacity="1" x="8.774" text-anchor="start" y="43.75" textLength="146.59722900390625">'Invocations' child of the</tspan><tspan xml:space="preserve" text-rendering="optimizeSpeed" style="font-family: Arial, Helvetica Neue, Helvetica, sans-serif;" font-size="13.88888888888889" font-weight="normal" font-style="normal" text-decoration="none" fill="#333333" opacity="1" x="43.462" text-anchor="start" y="59.375" textLength="81.07638549804688">method node</tspan></text></g></g><g width="150" height="75" transform="scale(1,1) translate(359.257,1304)"><g stroke="#B3D7EE" stroke-opacity="1" stroke-width="1" stroke-dasharray="none" width="150" height="75" transform="scale(1,1) translate(0,0)" fill="#B3D7EE" fill-opacity="1"><rect width="150" height="75"/></g><g width="144.66666666666666" height="69.66666666666667" transform="scale(1,1) translate(2.667,2.667)"><text width="144.66666666666666" height="31.250001907348633" transform="scale(1,1) translate(0,19.20833237965902)" xml:space="preserve"><tspan xml:space="preserve" text-rendering="optimizeSpeed" style="font-family: Arial, Helvetica Neue, Helvetica, sans-serif;" font-size="13.88888888888889" font-weight="normal" font-style="normal" text-decoration="none" fill="#333333" opacity="1" x="0" text-anchor="start" y="12.5" textLength="143.8194580078125">Wait for the DSA action</tspan><tspan xml:space="preserve" text-rendering="optimizeSpeed" style="font-family: Arial, Helvetica Neue, Helvetica, sans-serif;" font-size="13.88888888888889" font-weight="normal" font-style="normal" text-decoration="none" fill="#333333" opacity="1" x="46.483" text-anchor="start" y="28.125" textLength="51.701385498046875">to return</tspan></text></g></g><g width="190.09" height="95.045" transform="scale(1,1) translate(339.212,1455)"><g transform="scale(1,1) translate(0,0)" stroke="#B3D7EE" fill="#B3D7EE" fill-opacity="1" stroke-opacity="1"><path d="M47,0 L36.425,1.205 L32.142,2.41 L28.923,3.615 L26.266,4.821 L23.976,6.026 L21.952,7.231 L20.133,8.436 L18.481,9.641 L16.968,10.846 L15.574,12.051 L14.283,13.256 L13.085,14.462 L11.968,15.667 L10.927,16.872 L9.953,18.077 L9.043,19.282 L8.192,20.487 L7.395,21.692 L6.651,22.897 L5.955,24.103 L5.305,25.308 L4.7,26.513 L4.137,27.718 L3.615,28.923 L3.133,30.128 L2.688,31.333 L2.28,32.538 L1.908,33.744 L1.571,34.949 L1.269,36.154 L0.999,37.359 L0.763,38.564 L0.56,39.769 L0.388,40.974 L0.248,42.179 L0.139,43.385 L0.062,44.59 L0.015,45.795 L0,47 L0,48.045 L0.015,49.25 L0.062,50.455 L0.139,51.661 L0.248,52.866 L0.388,54.071 L0.56,55.276 L0.763,56.481 L0.999,57.686 L1.269,58.891 L1.571,60.096 L1.908,61.302 L2.28,62.507 L2.688,63.712 L3.133,64.917 L3.615,66.122 L4.137,67.327 L4.7,68.532 L5.305,69.738 L5.955,70.943 L6.651,72.148 L7.395,73.353 L8.192,74.558 L9.043,75.763 L9.953,76.968 L10.927,78.173 L11.968,79.379 L13.085,80.584 L14.283,81.789 L15.574,82.994 L16.968,84.199 L18.481,85.404 L20.133,86.609 L21.952,87.814 L23.976,89.02 L26.266,90.225 L28.923,91.43 L32.142,92.635 L36.425,93.84 L47,95.045 L143.09,95.045 L153.665,93.84 L157.948,92.635 L161.167,91.43 L163.824,90.225 L166.114,89.02 L168.139,87.814 L169.957,86.609 L171.609,85.404 L173.122,84.199 L174.516,82.994 L175.807,81.789 L177.006,80.584 L178.122,79.379 L179.164,78.173 L180.137,76.968 L181.047,75.763 L181.899,74.558 L182.695,73.353 L183.44,72.148 L184.136,70.943 L184.785,69.738 L185.39,68.532 L185.953,67.327 L186.475,66.122 L186.958,64.917 L187.402,63.712 L187.81,62.507 L188.182,61.302 L188.519,60.096 L188.822,58.891 L189.091,57.686 L189.327,56.481 L189.531,55.276 L189.703,54.071 L189.843,52.866 L189.951,51.661 L190.029,50.455 L190.075,49.25 L190.09,48.045 L190.09,47 L190.075,45.795 L190.029,44.59 L189.951,43.385 L189.843,42.179 L189.703,40.974 L189.531,39.769 L189.327,38.564 L189.091,37.359 L188.822,36.154 L188.519,34.949 L188.182,33.744 L187.81,32.538 L187.402,31.333 L186.958,30.128 L186.475,28.923 L185.953,27.718 L185.39,26.513 L184.785,25.308 L184.136,24.103 L183.44,22.897 L182.695,21.692 L181.899,20.487 L181.047,19.282 L180.137,18.077 L179.164,16.872 L178.122,15.667 L177.006,14.462 L175.807,13.256 L174.516,12.051 L173.122,10.846 L171.609,9.641 L169.957,8.436 L168.139,7.231 L166.114,6.026 L163.824,4.821 L161.167,3.615 L157.948,2.41 L153.665,1.205 L143.09,0 L47,0 z" stroke-width="1" stroke-dasharray="none"/></g><g width="129.7071144113945" height="62.500003814697266" transform="scale(1,1) translate(30.192,16.273)"><text width="129.7071144113945" height="62.500003814697266" transform="scale(1,1) translate(0,0)" xml:space="preserve"><tspan xml:space="preserve" text-rendering="optimizeSpeed" style="font-family: Arial, Helvetica Neue, Helvetica, sans-serif;" font-size="13.88888888888889" font-weight="normal" font-style="normal" text-decoration="none" fill="#333333" opacity="1" x="15.826" text-anchor="start" y="12.5" textLength="94.2013931274414">Respond to the</tspan><tspan xml:space="preserve" text-rendering="optimizeSpeed" style="font-family: Arial, Helvetica Neue, Helvetica, sans-serif;" font-size="13.88888888888889" font-weight="normal" font-style="normal" text-decoration="none" fill="#333333" opacity="1" x="5.791" text-anchor="start" y="28.125" textLength="114.27083587646484">invocation with the</tspan><tspan xml:space="preserve" text-rendering="optimizeSpeed" style="font-family: Arial, Helvetica Neue, Helvetica, sans-serif;" font-size="13.88888888888889" font-weight="normal" font-style="normal" text-decoration="none" fill="#333333" opacity="1" x="6.963" text-anchor="start" y="43.75" textLength="111.92709350585938">return value of the</tspan><tspan xml:space="preserve" text-rendering="optimizeSpeed" style="font-family: Arial, Helvetica Neue, Helvetica, sans-serif;" font-size="13.88888888888889" font-weight="normal" font-style="normal" text-decoration="none" fill="#333333" opacity="1" x="30.105" text-anchor="start" y="59.375" textLength="69.49655151367188">DSA action</tspan></text></g></g><g width="263.663" height="131.832" transform="scale(1,1) translate(635.257,948.084)"><g transform="scale(1,1) translate(0,0)" stroke="#B3D7EE" fill="#B3D7EE" fill-opacity="1" stroke-opacity="1"><path d="M65,0 L50.375,1.667 L44.452,3.333 L40,5 L36.326,6.667 L33.158,8.333 L30.359,10 L27.844,11.667 L25.559,13.333 L23.467,15 L21.539,16.667 L19.754,18.333 L18.096,20 L16.552,21.667 L15.111,23.333 L13.765,25 L12.507,26.667 L11.329,28.333 L10.228,30 L9.198,31.667 L8.235,33.333 L7.337,35 L6.5,36.667 L5.722,38.333 L5,40 L4.332,41.667 L3.717,43.333 L3.153,45 L2.639,46.667 L2.173,48.333 L1.754,50 L1.382,51.667 L1.056,53.333 L0.774,55 L0.536,56.667 L0.343,58.333 L0.193,60 L0.086,61.667 L0.021,63.333 L0,65 L0,66.832 L0.021,68.498 L0.086,70.165 L0.193,71.832 L0.343,73.498 L0.536,75.165 L0.774,76.832 L1.056,78.498 L1.382,80.165 L1.754,81.832 L2.173,83.498 L2.639,85.165 L3.153,86.832 L3.717,88.498 L4.332,90.165 L5,91.832 L5.722,93.498 L6.5,95.165 L7.337,96.832 L8.235,98.498 L9.198,100.165 L10.228,101.832 L11.329,103.498 L12.507,105.165 L13.765,106.832 L15.111,108.498 L16.552,110.165 L18.096,111.832 L19.754,113.498 L21.539,115.165 L23.467,116.832 L25.559,118.498 L27.844,120.165 L30.359,121.832 L33.158,123.498 L36.326,125.165 L40,126.832 L44.452,128.498 L50.375,130.165 L65,131.832 L198.663,131.832 L213.288,130.165 L219.211,128.498 L223.663,126.832 L227.338,125.165 L230.505,123.498 L233.304,121.832 L235.819,120.165 L238.104,118.498 L240.196,116.832 L242.125,115.165 L243.91,113.498 L245.567,111.832 L247.111,110.165 L248.552,108.498 L249.898,106.832 L251.157,105.165 L252.334,103.498 L253.436,101.832 L254.466,100.165 L255.428,98.498 L256.326,96.832 L257.163,95.165 L257.941,93.498 L258.663,91.832 L259.331,90.165 L259.946,88.498 L260.51,86.832 L261.024,85.165 L261.49,83.498 L261.909,81.832 L262.281,80.165 L262.608,78.498 L262.889,76.832 L263.127,75.165 L263.321,73.498 L263.471,71.832 L263.578,70.165 L263.642,68.498 L263.663,66.832 L263.663,65 L263.642,63.333 L263.578,61.667 L263.471,60 L263.321,58.333 L263.127,56.667 L262.889,55 L262.608,53.333 L262.281,51.667 L261.909,50 L261.49,48.333 L261.024,46.667 L260.51,45 L259.946,43.333 L259.331,41.667 L258.663,40 L257.941,38.333 L257.163,36.667 L256.326,35 L255.428,33.333 L254.466,31.667 L253.436,30 L252.334,28.333 L251.157,26.667 L249.898,25 L248.552,23.333 L247.111,21.667 L245.567,20 L243.91,18.333 L242.125,16.667 L240.196,15 L238.104,13.333 L235.819,11.667 L233.304,10 L230.505,8.333 L227.338,6.667 L223.663,5 L219.211,3.333 L213.288,1.667 L198.663,0 L65,0 z" stroke-width="1" stroke-dasharray="none"/></g><g width="181.73100522095797" height="88.51194921947899" transform="scale(1,1) translate(40.966,21.66)"><text width="181.73100522095797" height="78.12500476837158" transform="scale(1,1) translate(0,5.193472225553705)" xml:space="preserve"><tspan xml:space="preserve" text-rendering="optimizeSpeed" style="font-family: Arial, Helvetica Neue, Helvetica, sans-serif;" font-size="13.88888888888889" font-weight="normal" font-style="normal" text-decoration="none" fill="#333333" opacity="1" x="0" text-anchor="start" y="12.5" textLength="181.44097900390625">Set the value at resolvedPath</tspan><tspan xml:space="preserve" text-rendering="optimizeSpeed" style="font-family: Arial, Helvetica Neue, Helvetica, sans-serif;" font-size="13.88888888888889" font-weight="normal" font-style="normal" text-decoration="none" fill="#333333" opacity="1" x="0" text-anchor="start" y="28.125" textLength="181.70140075683594">to the "Value" parameter from</tspan><tspan xml:space="preserve" text-rendering="optimizeSpeed" style="font-family: Arial, Helvetica Neue, Helvetica, sans-serif;" font-size="13.88888888888889" font-weight="normal" font-style="normal" text-decoration="none" fill="#333333" opacity="1" x="0" text-anchor="start" y="43.75" textLength="178.31597900390625">the parameterMap, and send</tspan><tspan xml:space="preserve" text-rendering="optimizeSpeed" style="font-family: Arial, Helvetica Neue, Helvetica, sans-serif;" font-size="13.88888888888889" font-weight="normal" font-style="normal" text-decoration="none" fill="#333333" opacity="1" x="10.588" text-anchor="start" y="59.375" textLength="156.701416015625">an empty response to the</tspan><tspan xml:space="preserve" text-rendering="optimizeSpeed" style="font-family: Arial, Helvetica Neue, Helvetica, sans-serif;" font-size="13.88888888888889" font-weight="normal" font-style="normal" text-decoration="none" fill="#333333" opacity="1" x="59.589" text-anchor="start" y="75" textLength="62.5521240234375">invocation</tspan></text></g></g><g width="207.201" height="115.037" transform="scale(1,1) translate(330.656,759.963)"><g stroke="#B3D7EE" stroke-opacity="1" stroke-width="1" stroke-dasharray="none" width="207.201" height="115.037" transform="scale(1,1) translate(0,0)" fill="#B3D7EE" fill-opacity="1"><rect width="207.201" height="115.037"/></g><g width="202.201249972492" height="110.03659608417661" transform="scale(1,1) translate(2.5,2.5)"><text width="202.201249972492" height="62.500003814697266" transform="scale(1,1) translate(0,23.76829613473967)" xml:space="preserve"><tspan xml:space="preserve" text-rendering="optimizeSpeed" style="font-family: Arial, Helvetica Neue, Helvetica, sans-serif;" font-size="13.88888888888889" font-weight="normal" font-style="normal" text-decoration="none" fill="#333333" opacity="1" x="0.337" text-anchor="start" y="12.5" textLength="197.6736297607422">Replace any placeholders in the</tspan><tspan xml:space="preserve" text-rendering="optimizeSpeed" style="font-family: Arial, Helvetica Neue, Helvetica, sans-serif;" font-size="13.88888888888889" font-weight="normal" font-style="normal" text-decoration="none" fill="#333333" opacity="1" x="1.205" text-anchor="start" y="28.125" textLength="195.93751525878906">"Path" value with corresponding</tspan><tspan xml:space="preserve" text-rendering="optimizeSpeed" style="font-family: Arial, Helvetica Neue, Helvetica, sans-serif;" font-size="13.88888888888889" font-weight="normal" font-style="normal" text-decoration="none" fill="#333333" opacity="1" x="8.496" text-anchor="start" y="43.75" textLength="181.35415649414062">values from parameterMap to</tspan><tspan xml:space="preserve" text-rendering="optimizeSpeed" style="font-family: Arial, Helvetica Neue, Helvetica, sans-serif;" font-size="13.88888888888889" font-weight="normal" font-style="normal" text-decoration="none" fill="#333333" opacity="1" x="33.549" text-anchor="start" y="59.375" textLength="135.10418701171875">create a resolvedPath</tspan></text></g></g></g></svg>